<?xml version="1.0" encoding="UTF-8"?>
<svg width="1200" height="860" viewBox="0 0 1200 860"
     xmlns="http://www.w3.org/2000/svg"
     font-family="-apple-system, BlinkMacSystemFont, 'Segoe UI', Roboto, sans-serif">

<defs>
  <marker id="arr" markerWidth="8" markerHeight="6" refX="7" refY="3" orient="auto">
    <path d="M 0 0 L 8 3 L 0 6 Z" fill="#64748B"/>
  </marker>
  <marker id="arr-blue" markerWidth="8" markerHeight="6" refX="7" refY="3" orient="auto">
    <path d="M 0 0 L 8 3 L 0 6 Z" fill="#0078D4"/>
  </marker>
  <marker id="arr-teal" markerWidth="8" markerHeight="6" refX="7" refY="3" orient="auto">
    <path d="M 0 0 L 8 3 L 0 6 Z" fill="#0891B2"/>
  </marker>
  <marker id="arr-purple" markerWidth="8" markerHeight="6" refX="7" refY="3" orient="auto">
    <path d="M 0 0 L 8 3 L 0 6 Z" fill="#7C3AED"/>
  </marker>
  <filter id="shadow">
    <feDropShadow dx="0" dy="2" stdDeviation="3" flood-color="#000" flood-opacity="0.12"/>
  </filter>
</defs>

<!-- Background -->
<rect width="1200" height="860" fill="#F8FAFC"/>

<!-- Title -->
<text x="600" y="34" text-anchor="middle" font-size="20" font-weight="700" fill="#0F172A" letter-spacing="-0.5">Azure FinOps Dashboard — Architecture</text>

<!-- ── Azure Subscription boundary ── -->
<rect x="15" y="52" width="1170" height="790" rx="10" fill="none" stroke="#0078D4" stroke-width="2" stroke-dasharray="10,5"/>
<rect x="15" y="44" width="198" height="22" rx="4" fill="#0078D4"/>
<text x="26" y="59" font-size="11" fill="white" font-weight="600">Azure Subscription</text>

<!-- ── Resource Group boundary ── -->
<rect x="198" y="72" width="977" height="754" rx="8" fill="none" stroke="#94A3B8" stroke-width="1.5" stroke-dasharray="6,3"/>
<text x="208" y="90" font-size="11" fill="#64748B" font-weight="500">rg-finops-dev  ·  East US</text>

<!-- EXTERNAL label strip -->
<text x="106" y="114" text-anchor="middle" font-size="9" fill="#94A3B8" font-weight="600" letter-spacing="1.5">EXTERNAL</text>
<line x1="22" y1="120" x2="187" y2="120" stroke="#E2E8F0" stroke-width="1"/>


<!-- ════════════════════════════════════════════════════════
     BROWSER  (external)
════════════════════════════════════════════════════════ -->
<g transform="translate(106,155)">
  <!-- Box -->
  <rect x="-36" y="0" width="72" height="72" rx="10" fill="#F1F5F9" stroke="#CBD5E1" stroke-width="1.5" filter="url(#shadow)"/>
  <!-- Monitor body -->
  <rect x="-22" y="16" width="44" height="30" rx="3" fill="none" stroke="#475569" stroke-width="2"/>
  <!-- Stand -->
  <line x1="-6" y1="46" x2="-6" y2="54" stroke="#475569" stroke-width="2"/>
  <line x1="-16" y1="54" x2="4" y2="54" stroke="#475569" stroke-width="2"/>
  <!-- Screen content lines -->
  <line x1="-17" y1="24" x2="13" y2="24" stroke="#94A3B8" stroke-width="1.5"/>
  <line x1="-17" y1="30" x2="6" y2="30" stroke="#CBD5E1" stroke-width="1"/>
  <line x1="-17" y1="36" x2="2" y2="36" stroke="#CBD5E1" stroke-width="1"/>
  <!-- User person -->
  <circle cx="0" cy="8" r="6" fill="none" stroke="#475569" stroke-width="2"/>
</g>
<text x="106" y="240" text-anchor="middle" font-size="12" font-weight="600" fill="#1E293B">Browser</text>
<text x="106" y="254" text-anchor="middle" font-size="10" fill="#64748B">User / React SPA</text>


<!-- ════════════════════════════════════════════════════════
     AZURE COST MANAGEMENT API  (external)
════════════════════════════════════════════════════════ -->
<g transform="translate(106,385)">
  <rect x="-36" y="0" width="72" height="72" rx="10" fill="#ECFEFF" stroke="#0891B2" stroke-width="1.5" filter="url(#shadow)"/>
  <!-- Bar chart -->
  <rect x="-20" y="34" width="9" height="20" fill="#0891B2"/>
  <rect x="-8"  y="26" width="9" height="28" fill="#0891B2"/>
  <rect x="4"   y="18" width="9" height="36" fill="#0891B2"/>
  <rect x="16"  y="30" width="9" height="24" fill="#0891B2"/>
  <!-- Dollar sign -->
  <text x="0" y="16" text-anchor="middle" font-size="14" font-weight="800" fill="#0891B2">$</text>
</g>
<text x="106" y="472" text-anchor="middle" font-size="12" font-weight="600" fill="#1E293B">Cost Mgmt API</text>
<text x="106" y="486" text-anchor="middle" font-size="10" fill="#64748B">management.azure.com</text>
<text x="106" y="500" text-anchor="middle" font-size="10" fill="#64748B">REST · BearerToken</text>


<!-- ════════════════════════════════════════════════════════
     STATIC WEB APPS
════════════════════════════════════════════════════════ -->
<g transform="translate(330,159)">
  <rect x="-40" y="0" width="80" height="80" rx="12" fill="#EFF6FF" stroke="#0078D4" stroke-width="1.5" filter="url(#shadow)"/>
  <!-- Globe outer circle -->
  <circle cx="0" cy="40" r="28" fill="none" stroke="#0078D4" stroke-width="2"/>
  <!-- Equator -->
  <line x1="-28" y1="40" x2="28" y2="40" stroke="#0078D4" stroke-width="1.5"/>
  <!-- Vertical meridian -->
  <ellipse cx="0" cy="40" rx="13" ry="28" fill="none" stroke="#0078D4" stroke-width="1.5"/>
  <!-- Latitude parallels -->
  <line x1="-25" y1="26" x2="25" y2="26" stroke="#BFDBFE" stroke-width="1.2"/>
  <line x1="-25" y1="54" x2="25" y2="54" stroke="#BFDBFE" stroke-width="1.2"/>
</g>
<text x="330" y="256" text-anchor="middle" font-size="12" font-weight="600" fill="#1E3A5F">Static Web Apps</text>
<text x="330" y="270" text-anchor="middle" font-size="10" fill="#64748B">React SPA Host</text>
<text x="330" y="284" text-anchor="middle" font-size="10" fill="#64748B">Azure CDN · HTTPS</text>


<!-- ════════════════════════════════════════════════════════
     AZURE FUNCTIONS — HTTP TRIGGERS
════════════════════════════════════════════════════════ -->
<rect x="440" y="130" width="280" height="158" rx="10" fill="#FFFBEB" stroke="#F59E0B" stroke-width="1.5" filter="url(#shadow)"/>
<!-- Functions icon: amber square + lightning bolt -->
<g transform="translate(452,143)">
  <rect x="0" y="0" width="48" height="48" rx="8" fill="#F59E0B"/>
  <!-- Lightning bolt path -->
  <path d="M30 5 L17 27 H24 L20 43 L35 18 H28 Z" fill="white"/>
</g>
<text x="510" y="163" font-size="13" font-weight="700" fill="#92400E">Azure Functions</text>
<text x="510" y="178" font-size="11" fill="#78350F">HTTP Triggers · Anonymous</text>
<line x1="450" y1="203" x2="710" y2="203" stroke="#FDE68A" stroke-width="1"/>
<text x="452" y="218" font-size="10" fill="#78350F">GET  /api/costs/daily</text>
<text x="452" y="232" font-size="10" fill="#78350F">GET  /api/costs/by-resource</text>
<text x="452" y="246" font-size="10" fill="#78350F">GET  /api/tags/hygiene</text>
<text x="452" y="260" font-size="10" fill="#78350F">GET  /api/anomalies  ·  /api/forecasts</text>
<text x="452" y="278" font-size="10" fill="#92400E">C# .NET 8 · Isolated Worker · Consumption Plan</text>


<!-- ════════════════════════════════════════════════════════
     AZURE FUNCTIONS — TIMER TRIGGERS
════════════════════════════════════════════════════════ -->
<rect x="440" y="358" width="280" height="186" rx="10" fill="#FFFBEB" stroke="#F59E0B" stroke-width="1.5" filter="url(#shadow)"/>
<!-- Functions icon with clock badge -->
<g transform="translate(452,371)">
  <rect x="0" y="0" width="48" height="48" rx="8" fill="#F59E0B"/>
  <path d="M30 5 L17 27 H24 L20 43 L35 18 H28 Z" fill="white"/>
  <!-- Clock badge (bottom-right) -->
  <circle cx="40" cy="40" r="12" fill="white"/>
  <circle cx="40" cy="40" r="10" fill="none" stroke="#F59E0B" stroke-width="1.5"/>
  <line x1="40" y1="34" x2="40" y2="40" stroke="#F59E0B" stroke-width="1.5"/>
  <line x1="40" y1="40" x2="45" y2="40" stroke="#F59E0B" stroke-width="1.5"/>
</g>
<text x="510" y="392" font-size="13" font-weight="700" fill="#92400E">Azure Functions</text>
<text x="510" y="407" font-size="11" fill="#78350F">Timer Triggers · UTC Daily</text>
<line x1="450" y1="430" x2="710" y2="430" stroke="#FDE68A" stroke-width="1"/>
<text x="452" y="446" font-size="10" fill="#78350F">CostIngestion         06:00 UTC</text>
<text x="452" y="461" font-size="10" fill="#78350F">AnomalyDetection   06:30 UTC</text>
<text x="452" y="476" font-size="10" fill="#78350F">Forecast                  07:00 UTC</text>
<line x1="450" y1="490" x2="710" y2="490" stroke="#FDE68A" stroke-width="1"/>
<text x="452" y="506" font-size="10" fill="#92400E">DefaultAzureCredential · Managed Identity</text>
<text x="452" y="520" font-size="10" fill="#92400E">RBAC-only · No secrets in config</text>
<text x="452" y="534" font-size="10" fill="#92400E">CosmosClient singleton (connection-pooled)</text>


<!-- ════════════════════════════════════════════════════════
     COSMOS DB
════════════════════════════════════════════════════════ -->
<rect x="785" y="130" width="222" height="318" rx="10" fill="#EFF6FF" stroke="#0072C6" stroke-width="1.5" filter="url(#shadow)"/>
<!-- Cosmos icon: blue square + planet/ring -->
<g transform="translate(860,143)">
  <rect x="-28" y="0" width="56" height="56" rx="8" fill="#0072C6"/>
  <!-- Planet sphere -->
  <circle cx="0" cy="28" r="13" fill="#E0F2FE" stroke="white" stroke-width="1.5"/>
  <!-- Orbital ring 1 -->
  <ellipse cx="0" cy="28" rx="24" ry="9" fill="none" stroke="white" stroke-width="2" transform="rotate(-35 0 28)"/>
  <!-- Orbital ring 2 (faded) -->
  <ellipse cx="0" cy="28" rx="24" ry="9" fill="none" stroke="white" stroke-width="1.5" opacity="0.45" transform="rotate(35 0 28)"/>
</g>
<text x="896" y="214" text-anchor="middle" font-size="13" font-weight="700" fill="#1E3A5F">Cosmos DB</text>
<text x="896" y="229" text-anchor="middle" font-size="10" fill="#64748B">SQL API · Free Tier</text>
<line x1="795" y1="240" x2="997" y2="240" stroke="#BFDBFE" stroke-width="1"/>
<text x="799" y="257" font-size="11" font-weight="600" fill="#1E3A5F">Containers</text>
<!-- Container list -->
<rect x="799" y="266" width="7" height="15" rx="1" fill="#0072C6"/>
<text x="813" y="278" font-size="10" fill="#374151">daily-costs · /resourceId</text>
<rect x="799" y="288" width="7" height="15" rx="1" fill="#0072C6"/>
<text x="813" y="300" font-size="10" fill="#374151">anomalies · /detectedDate</text>
<rect x="799" y="310" width="7" height="15" rx="1" fill="#0072C6"/>
<text x="813" y="322" font-size="10" fill="#374151">forecasts · /forecastDate</text>
<rect x="799" y="332" width="7" height="15" rx="1" fill="#7C3AED"/>
<text x="813" y="344" font-size="10" fill="#374151">budgets · /budgetName</text>
<line x1="795" y1="356" x2="997" y2="356" stroke="#BFDBFE" stroke-width="1"/>
<text x="799" y="372" font-size="10" fill="#64748B">Session consistency</text>
<text x="799" y="386" font-size="10" fill="#64748B">local_authentication_disabled</text>
<text x="799" y="400" font-size="10" fill="#64748B">RBAC data plane · no conn strings</text>
<text x="799" y="414" font-size="10" fill="#64748B">Consistent indexing · all paths</text>
<text x="799" y="428" font-size="10" fill="#64748B">Partition key per container</text>


<!-- ════════════════════════════════════════════════════════
     APPLICATION INSIGHTS
════════════════════════════════════════════════════════ -->
<g transform="translate(548,600)">
  <rect x="-36" y="0" width="72" height="72" rx="10" fill="#F5F3FF" stroke="#7C3AED" stroke-width="1.5" filter="url(#shadow)"/>
  <!-- Funnel / telescope shape -->
  <path d="M -22 14 L 22 14 L 10 36 L 10 58 L -10 58 L -10 36 Z" fill="none" stroke="#7C3AED" stroke-width="2.5" stroke-linejoin="round"/>
  <!-- Lens circles at top -->
  <circle cx="0" cy="12" r="4" fill="#7C3AED" opacity="0.6"/>
</g>
<text x="548" y="686" text-anchor="middle" font-size="12" font-weight="600" fill="#4C1D95">Application Insights</text>
<text x="548" y="700" text-anchor="middle" font-size="10" fill="#64748B">Telemetry · Traces</text>
<text x="548" y="714" text-anchor="middle" font-size="10" fill="#64748B">Exceptions · Metrics</text>


<!-- ════════════════════════════════════════════════════════
     LOG ANALYTICS WORKSPACE
════════════════════════════════════════════════════════ -->
<g transform="translate(760,600)">
  <rect x="-36" y="0" width="72" height="72" rx="10" fill="#EFF6FF" stroke="#0078D4" stroke-width="1.5" filter="url(#shadow)"/>
  <!-- Cylinder (log store) -->
  <ellipse cx="0" cy="20" rx="22" ry="8" fill="#BFDBFE" stroke="#0078D4" stroke-width="1.5"/>
  <rect x="-22" y="20" width="44" height="24" fill="#BFDBFE" stroke="#0078D4" stroke-width="0"/>
  <line x1="-22" y1="20" x2="-22" y2="44" stroke="#0078D4" stroke-width="1.5"/>
  <line x1="22" y1="20" x2="22" y2="44" stroke="#0078D4" stroke-width="1.5"/>
  <ellipse cx="0" cy="44" rx="22" ry="8" fill="#93C5FD" stroke="#0078D4" stroke-width="1.5"/>
  <!-- Magnifying glass overlay -->
  <circle cx="16" cy="52" r="8" fill="white" stroke="#0078D4" stroke-width="1.5"/>
  <line x1="22" y1="58" x2="28" y2="64" stroke="#0078D4" stroke-width="2"/>
</g>
<text x="760" y="686" text-anchor="middle" font-size="12" font-weight="600" fill="#1E3A5F">Log Analytics</text>
<text x="760" y="700" text-anchor="middle" font-size="10" fill="#64748B">Workspace · 30d retention</text>
<text x="760" y="714" text-anchor="middle" font-size="10" fill="#64748B">KQL · Alerts</text>


<!-- ════════════════════════════════════════════════════════
     STORAGE ACCOUNT (Functions runtime)
════════════════════════════════════════════════════════ -->
<g transform="translate(972,600)">
  <rect x="-36" y="0" width="72" height="72" rx="10" fill="#EFF6FF" stroke="#0078D4" stroke-width="1.5" filter="url(#shadow)"/>
  <!-- Table / storage icon -->
  <rect x="-22" y="14" width="44" height="44" rx="3" fill="none" stroke="#0078D4" stroke-width="2"/>
  <line x1="-22" y1="26" x2="22" y2="26" stroke="#0078D4" stroke-width="1.5"/>
  <line x1="-22" y1="38" x2="22" y2="38" stroke="#0078D4" stroke-width="1.5"/>
  <line x1="-22" y1="50" x2="22" y2="50" stroke="#0078D4" stroke-width="1.5"/>
  <line x1="-8" y1="14" x2="-8" y2="58" stroke="#0078D4" stroke-width="1.5"/>
  <line x1="8" y1="14" x2="8" y2="58" stroke="#0078D4" stroke-width="1.5"/>
</g>
<text x="972" y="686" text-anchor="middle" font-size="12" font-weight="600" fill="#1E3A5F">Storage Account</text>
<text x="972" y="700" text-anchor="middle" font-size="10" fill="#64748B">Functions runtime</text>
<text x="972" y="714" text-anchor="middle" font-size="10" fill="#64748B">Standard LRS · TLS 1.2</text>


<!-- ════════════════════════════════════════════════════════
     MANAGED IDENTITY + RBAC INFO BOX
════════════════════════════════════════════════════════ -->
<rect x="235" y="573" width="235" height="122" rx="10" fill="#F0FDF4" stroke="#16A34A" stroke-width="1.5" filter="url(#shadow)"/>
<!-- Identity icon -->
<g transform="translate(258,588)">
  <rect x="0" y="0" width="46" height="46" rx="8" fill="#16A34A"/>
  <!-- Person silhouette -->
  <circle cx="23" cy="14" r="9" fill="white"/>
  <path d="M8 44 C8 30 38 30 38 44" fill="white"/>
  <!-- Lock badge -->
  <circle cx="38" cy="36" r="11" fill="white"/>
  <rect x="31" y="36" width="14" height="10" rx="2" fill="#16A34A"/>
  <path d="M32.5 36 C32.5 29 43.5 29 43.5 36" fill="none" stroke="#16A34A" stroke-width="2"/>
</g>
<text x="316" y="600" font-size="12" font-weight="700" fill="#14532D">Managed Identity</text>
<text x="316" y="614" font-size="10" fill="#166534">System-assigned · Function App</text>
<line x1="245" y1="625" x2="460" y2="625" stroke="#BBF7D0" stroke-width="1"/>
<text x="248" y="640" font-size="10" fill="#15803D">Cost Mgmt Reader → subscription</text>
<text x="248" y="655" font-size="10" fill="#15803D">Reader (tags) → subscription</text>
<text x="248" y="670" font-size="10" fill="#15803D">Cosmos DB Data Contributor → db</text>
<text x="248" y="685" font-size="10" fill="#15803D">local_authentication_disabled = true</text>


<!-- ════════════════════════════════════════════════════════
     TERRAFORM STATE BACKEND (annotation)
════════════════════════════════════════════════════════ -->
<rect x="22" y="720" width="168" height="88" rx="8" fill="#F8FAFC" stroke="#CBD5E1" stroke-width="1.5" filter="url(#shadow)"/>
<!-- Small storage icon -->
<rect x="34" y="732" width="30" height="32" rx="3" fill="none" stroke="#94A3B8" stroke-width="1.5"/>
<line x1="34" y1="742" x2="64" y2="742" stroke="#CBD5E1" stroke-width="1"/>
<line x1="34" y1="752" x2="64" y2="752" stroke="#CBD5E1" stroke-width="1"/>
<line x1="47" y1="732" x2="47" y2="764" stroke="#CBD5E1" stroke-width="1"/>
<text x="72" y="742" font-size="11" font-weight="600" fill="#374151">Terraform State</text>
<text x="72" y="756" font-size="10" fill="#64748B">Azure Blob backend</text>
<text x="72" y="769" font-size="10" fill="#64748B">State lock enabled</text>
<text x="34" y="798" font-size="10" fill="#94A3B8" font-style="italic">separate resource group</text>


<!-- ════════════════════════════════════════════════════════
     FLOW ARROWS
════════════════════════════════════════════════════════ -->

<!-- Browser → Static Web Apps (loads SPA) -->
<line x1="142" y1="191" x2="290" y2="191" stroke="#64748B" stroke-width="1.5" marker-end="url(#arr)"/>
<text x="216" y="184" text-anchor="middle" font-size="9" fill="#94A3B8">HTTPS / CDN</text>

<!-- Browser → HTTP Functions (fetch API calls) - dashed curve below -->
<path d="M 106 227 Q 106 310 350 310 Q 440 310 440 209" stroke="#64748B" stroke-width="1.5" fill="none" stroke-dasharray="5,3" marker-end="url(#arr)"/>
<text x="286" y="323" text-anchor="middle" font-size="9" fill="#94A3B8">fetch() API calls</text>

<!-- Static Web Apps → HTTP Functions -->
<line x1="370" y1="199" x2="440" y2="199" stroke="#0078D4" stroke-width="1.5" marker-end="url(#arr-blue)"/>
<text x="405" y="192" text-anchor="middle" font-size="9" fill="#0078D4">JSON REST</text>

<!-- HTTP Functions → Cosmos DB (read) -->
<line x1="720" y1="209" x2="785" y2="240" stroke="#0078D4" stroke-width="1.5" marker-end="url(#arr-blue)"/>
<text x="755" y="218" text-anchor="middle" font-size="9" fill="#0078D4">read</text>

<!-- Timer Functions → Cost Mgmt API (query costs — left-pointing) -->
<line x1="440" y1="450" x2="142" y2="432" stroke="#0891B2" stroke-width="1.5" marker-end="url(#arr-teal)"/>
<text x="290" y="435" text-anchor="middle" font-size="9" fill="#0891B2">query costs (Bearer)</text>

<!-- Timer Functions → Cosmos DB (upsert) -->
<line x1="720" y1="410" x2="785" y2="350" stroke="#0072C6" stroke-width="1.5" marker-end="url(#arr-blue)"/>
<text x="760" y="388" text-anchor="middle" font-size="9" fill="#0072C6">upsert</text>

<!-- HTTP Functions → App Insights (telemetry) -->
<path d="M 580 288 L 548 600" stroke="#7C3AED" stroke-width="1.5" fill="none" stroke-dasharray="5,3" marker-end="url(#arr-purple)"/>
<text x="560" y="460" font-size="9" fill="#7C3AED">telemetry</text>

<!-- Timer Functions → App Insights (telemetry) -->
<path d="M 548 544 L 548 600" stroke="#7C3AED" stroke-width="1.5" fill="none" stroke-dasharray="5,3" marker-end="url(#arr-purple)"/>

<!-- App Insights → Log Analytics (workspace) -->
<line x1="584" y1="636" x2="724" y2="636" stroke="#0078D4" stroke-width="1.5" marker-end="url(#arr-blue)"/>
<text x="654" y="629" text-anchor="middle" font-size="9" fill="#0078D4">workspace</text>

<!-- Managed Identity annotation arrow to Functions boxes -->
<path d="M 470 573 L 544 544" stroke="#16A34A" stroke-width="1.5" fill="none" stroke-dasharray="4,3" marker-end="url(#arr)"/>


<!-- ════════════════════════════════════════════════════════
     LEGEND
════════════════════════════════════════════════════════ -->
<rect x="480" y="748" width="700" height="90" rx="8" fill="#F1F5F9" stroke="#E2E8F0" stroke-width="1"/>
<text x="490" y="766" font-size="11" font-weight="600" fill="#374151">Legend</text>

<!-- Arrow samples row 1 -->
<line x1="490" y1="780" x2="530" y2="780" stroke="#64748B" stroke-width="1.5" marker-end="url(#arr)"/>
<text x="540" y="784" font-size="10" fill="#374151">HTTP REST call</text>

<line x1="640" y1="780" x2="680" y2="780" stroke="#64748B" stroke-width="1.5" stroke-dasharray="5,3" marker-end="url(#arr)"/>
<text x="690" y="784" font-size="10" fill="#374151">Browser fetch()</text>

<line x1="790" y1="780" x2="830" y2="780" stroke="#0078D4" stroke-width="1.5" marker-end="url(#arr-blue)"/>
<text x="840" y="784" font-size="10" fill="#374151">Managed Identity / RBAC</text>

<line x1="1000" y1="780" x2="1040" y2="780" stroke="#7C3AED" stroke-width="1.5" stroke-dasharray="5,3" marker-end="url(#arr-purple)"/>
<text x="1050" y="784" font-size="10" fill="#374151">Telemetry</text>

<!-- Row 2 -->
<text x="490" y="810" font-size="10" fill="#64748B">Icons use official Microsoft Azure brand colors.  Infrastructure deployed via Terraform.  Managed Identity for all Azure service auth — zero secrets stored.</text>

<!-- Service color swatches row -->
<rect x="490" y="822" width="12" height="12" rx="2" fill="#F59E0B"/>
<text x="507" y="832" font-size="10" fill="#64748B">Functions</text>
<rect x="580" y="822" width="12" height="12" rx="2" fill="#0072C6"/>
<text x="597" y="832" font-size="10" fill="#64748B">Cosmos DB</text>
<rect x="670" y="822" width="12" height="12" rx="2" fill="#0078D4"/>
<text x="687" y="832" font-size="10" fill="#64748B">Static Web Apps</text>
<rect x="780" y="822" width="12" height="12" rx="2" fill="#7C3AED"/>
<text x="797" y="832" font-size="10" fill="#64748B">App Insights</text>
<rect x="870" y="822" width="12" height="12" rx="2" fill="#0891B2"/>
<text x="887" y="832" font-size="10" fill="#64748B">Cost Mgmt</text>
<rect x="960" y="822" width="12" height="12" rx="2" fill="#16A34A"/>
<text x="977" y="832" font-size="10" fill="#64748B">Managed Identity</text>

</svg>
